<svg xmlns="http://www.w3.org/2000/svg" xmlns:xlink="http://www.w3.org/1999/xlink" viewBox="0 0 36 36">
<style>svg{stroke:#edf2f6;animation:dashoffset 10s both infinite,fill-opacity 10s both infinite,stroke-opacity 10s both infinite;stroke-dasharray:500%;stroke-dashoffset:500%}@keyframes stroke-opacity{2%,25%{stroke-opacity:.75;stroke-width:2%}100%,75%{stroke-opacity:0;stroke-width:0}}@keyframes fill-opacity{10%,25%{fill-opacity:0}0%,100%,50%{fill-opacity:1}}@keyframes dashoffset{0%,2%{stroke-dashoffset:500%}100%{stroke-dashoffset:0%}}</style>
<ellipse fill="#F5F8FA" cx="8.828" cy="18" rx="7.953" ry="13.281"/>
<path fill="#E1E8ED" d="M8.828 32.031C3.948 32.031.125 25.868.125 18S3.948 3.969 8.828 3.969 17.531 10.132 17.531 18s-3.823 14.031-8.703 14.031zm0-26.562C4.856 5.469 1.625 11.09 1.625 18s3.231 12.531 7.203 12.531S16.031 24.91 16.031 18 12.8 5.469 8.828 5.469z"/>
<circle fill="#8899A6" cx="6.594" cy="18" r="4.96"/>
<circle fill="#292F33" cx="6.594" cy="18" r="3.565"/>
<circle fill="#F5F8FA" cx="7.911" cy="15.443" r="1.426"/>
<ellipse fill="#F5F8FA" cx="27.234" cy="18" rx="7.953" ry="13.281"/>
<path fill="#E1E8ED" d="M27.234 32.031c-4.88 0-8.703-6.163-8.703-14.031s3.823-14.031 8.703-14.031S35.938 10.132 35.938 18s-3.824 14.031-8.704 14.031zm0-26.562c-3.972 0-7.203 5.622-7.203 12.531 0 6.91 3.231 12.531 7.203 12.531S34.438 24.91 34.438 18 31.206 5.469 27.234 5.469z"/>
<circle fill="#8899A6" cx="25" cy="18" r="4.96"/>
<circle fill="#292F33" cx="25" cy="18" r="3.565"/>
<circle fill="#F5F8FA" cx="26.317" cy="15.443" r="1.426"/>
</svg>